<?xml version="1.0" standalone="no"?><!DOCTYPE svg PUBLIC "-//W3C//DTD SVG 1.1//EN" "http://www.w3.org/Graphics/SVG/1.1/DTD/svg11.dtd"><svg t="1501646194540" class="icon" style="" viewBox="0 0 1044 1024" version="1.1" xmlns="http://www.w3.org/2000/svg" p-id="2016" xmlns:xlink="http://www.w3.org/1999/xlink" width="130.5" height="128"><defs><style type="text/css"></style></defs><path d="M626.938776 1017.034014h417.959183l-111.455782-202.013606a1170.285714 1170.285714 0 0 1-202.013606-55.727891c-27.863946-20.897959-34.829932-97.52381-76.62585-97.52381s-90.557823 83.591837-104.489796 132.353742h-48.761905c-13.931973-55.727891-62.693878-132.353741-104.489796-132.353742s-48.761905 76.62585-76.62585 97.52381a1170.285714 1170.285714 0 0 1-202.013605 55.727891L0 1017.034014h626.938776zM522.44898 0a257.741497 257.741497 0 0 1 257.741496 257.741497v285.605442A76.62585 76.62585 0 0 1 696.598639 619.972789H348.29932a76.62585 76.62585 0 0 1-83.591837-76.62585V257.741497A257.741497 257.741497 0 0 1 522.44898 0z" fill="#FF6F00" p-id="2017"></path></svg>