<?xml version="1.0" standalone="no"?><!DOCTYPE svg PUBLIC "-//W3C//DTD SVG 1.1//EN" "http://www.w3.org/Graphics/SVG/1.1/DTD/svg11.dtd"><svg t="1501566570405" class="icon" style="" viewBox="0 0 1024 1024" version="1.1" xmlns="http://www.w3.org/2000/svg" p-id="6567" xmlns:xlink="http://www.w3.org/1999/xlink" width="200" height="200"><defs><style type="text/css"></style></defs><path d="M352 432C378.509667 432 400 410.509667 400 384 400 357.490333 378.509667 336 352 336 325.490333 336 304 357.490333 304 384 304 410.509667 325.490333 432 352 432ZM672 432C698.509667 432 720 410.509667 720 384 720 357.490333 698.509667 336 672 336 645.490333 336 624 357.490333 624 384 624 410.509667 645.490333 432 672 432ZM256 587.222222C256 713.572699 370.615104 816 512 816 653.384896 816 768 713.572699 768 587.222222L256 587.222222Z" p-id="6568" fill="#515151"></path><path d="M512 960C759.423568 960 960 759.423568 960 512 960 264.576432 759.423568 64 512 64 264.576432 64 64 264.576432 64 512 64 759.423568 264.576432 960 512 960L512 960ZM512 928C282.249544 928 96 741.750456 96 512 96 282.249544 282.249544 96 512 96 741.750456 96 928 282.249544 928 512 928 741.750456 741.750456 928 512 928L512 928Z" p-id="6569" fill="#515151"></path></svg>