<?xml version="1.0" standalone="no"?><!DOCTYPE svg PUBLIC "-//W3C//DTD SVG 1.1//EN" "http://www.w3.org/Graphics/SVG/1.1/DTD/svg11.dtd"><svg t="1501570488372" class="icon" style="" viewBox="0 0 1024 1024" version="1.1" xmlns="http://www.w3.org/2000/svg" p-id="10979" xmlns:xlink="http://www.w3.org/1999/xlink" width="200" height="200"><defs><style type="text/css"></style></defs><path d="M576.512 754.526316h285.480421A53.733053 53.733053 0 0 0 916.210526 700.469895V215.740632A53.894737 53.894737 0 0 0 862.315789 161.684211H161.684211c-29.911579 0-53.894737 24.037053-53.894737 54.056421v484.729263A53.894737 53.894737 0 0 0 161.684211 754.526316h161.68421l0.485053 168.474947L576.512 754.526316zM161.684211 107.789474h700.631578a107.789474 107.789474 0 0 1 107.789474 107.951158v484.729263A107.627789 107.627789 0 0 1 861.992421 808.421053H592.842105l-323.368421 215.578947v-215.578947H161.684211a107.789474 107.789474 0 0 1-107.789474-107.951158V215.740632C53.894737 156.133053 101.861053 107.789474 161.684211 107.789474z" p-id="10980" fill="#ffffff"></path></svg>