<?xml version="1.0" standalone="no"?><!DOCTYPE svg PUBLIC "-//W3C//DTD SVG 1.1//EN" "http://www.w3.org/Graphics/SVG/1.1/DTD/svg11.dtd"><svg t="1501566855670" class="icon" style="" viewBox="0 0 1024 1024" version="1.1" xmlns="http://www.w3.org/2000/svg" p-id="9532" xmlns:xlink="http://www.w3.org/1999/xlink" width="200" height="200"><defs><style type="text/css"></style></defs><path d="M512 0C230.4 0 0 230.4 0 512s230.4 512 512 512 512-230.4 512-512S793.6 0 512 0z m0 987.461818C250.507636 987.461818 36.561455 773.469091 36.561455 512 36.561455 250.554182 250.507636 36.584727 512 36.584727c261.469091 0 475.415273 213.969455 475.415273 475.415273 0 261.492364-213.946182 475.461818-475.415273 475.461818z m-104.261818-568.715636L316.369455 512l93.253818 93.277091c49.361455-51.2 49.361455-135.330909-1.838546-186.507636z m93.277091-91.438546l-45.707637 45.730909c76.8 76.8 76.8 201.146182 0 277.969455l45.707637 45.707636c102.4-102.4 102.4-266.984727 0-369.408z m91.438545-93.230545l-45.730909 45.684364c128 128 128 334.661818 0 462.661818l45.730909 45.707636c153.6-151.761455 153.6-400.453818 0-554.053818z" p-id="9533" fill="#515151"></path></svg>